<?xml version="1.0" standalone="no"?>
<svg xmlns:xlink="http://www.w3.org/1999/xlink" id="wave" style="transform:rotate(180deg); transition: 0.3s" viewBox="0 0 1440 490" version="1.1" xmlns="http://www.w3.org/2000/svg"><defs><linearGradient id="sw-gradient-0" x1="0" x2="0" y1="1" y2="0"><stop stop-color="rgba(62, 71.914, 243, 1)" offset="0%"/><stop stop-color="rgba(11, 255, 229.374, 1)" offset="100%"/></linearGradient></defs><path style="transform:translate(0, 0px); opacity:1" fill="url(#sw-gradient-0)" d="M0,343L24,334.8C48,327,96,310,144,277.7C192,245,240,196,288,187.8C336,180,384,212,432,236.8C480,261,528,278,576,253.2C624,229,672,163,720,147C768,131,816,163,864,163.3C912,163,960,131,1008,106.2C1056,82,1104,65,1152,65.3C1200,65,1248,82,1296,98C1344,114,1392,131,1440,138.8C1488,147,1536,147,1584,179.7C1632,212,1680,278,1728,318.5C1776,359,1824,376,1872,326.7C1920,278,1968,163,2016,155.2C2064,147,2112,245,2160,310.3C2208,376,2256,408,2304,367.5C2352,327,2400,212,2448,196C2496,180,2544,261,2592,269.5C2640,278,2688,212,2736,187.8C2784,163,2832,180,2880,179.7C2928,180,2976,163,3024,138.8C3072,114,3120,82,3168,65.3C3216,49,3264,49,3312,114.3C3360,180,3408,310,3432,375.7L3456,441L3456,490L3432,490C3408,490,3360,490,3312,490C3264,490,3216,490,3168,490C3120,490,3072,490,3024,490C2976,490,2928,490,2880,490C2832,490,2784,490,2736,490C2688,490,2640,490,2592,490C2544,490,2496,490,2448,490C2400,490,2352,490,2304,490C2256,490,2208,490,2160,490C2112,490,2064,490,2016,490C1968,490,1920,490,1872,490C1824,490,1776,490,1728,490C1680,490,1632,490,1584,490C1536,490,1488,490,1440,490C1392,490,1344,490,1296,490C1248,490,1200,490,1152,490C1104,490,1056,490,1008,490C960,490,912,490,864,490C816,490,768,490,720,490C672,490,624,490,576,490C528,490,480,490,432,490C384,490,336,490,288,490C240,490,192,490,144,490C96,490,48,490,24,490L0,490Z"/></svg>