<?xml version="1.0" standalone="no"?>
<svg xmlns:xlink="http://www.w3.org/1999/xlink" id="wave" style="transform:rotate(180deg); transition: 0.3s" viewBox="0 0 1440 490" version="1.1" xmlns="http://www.w3.org/2000/svg"><defs><linearGradient id="sw-gradient-0" x1="0" x2="0" y1="1" y2="0"><stop stop-color="rgba(62, 71.914, 243, 1)" offset="0%"/><stop stop-color="rgba(11, 255, 229.374, 1)" offset="100%"/></linearGradient></defs><path style="transform:translate(0, 0px); opacity:1" fill="url(#sw-gradient-0)" d="M0,0L26.7,40.8C53.3,82,107,163,160,212.3C213.3,261,267,278,320,245C373.3,212,427,131,480,106.2C533.3,82,587,114,640,155.2C693.3,196,747,245,800,285.8C853.3,327,907,359,960,359.3C1013.3,359,1067,327,1120,285.8C1173.3,245,1227,196,1280,212.3C1333.3,229,1387,310,1440,318.5C1493.3,327,1547,261,1600,212.3C1653.3,163,1707,131,1760,106.2C1813.3,82,1867,65,1920,73.5C1973.3,82,2027,114,2080,163.3C2133.3,212,2187,278,2240,302.2C2293.3,327,2347,310,2400,285.8C2453.3,261,2507,229,2560,179.7C2613.3,131,2667,65,2720,32.7C2773.3,0,2827,0,2880,40.8C2933.3,82,2987,163,3040,179.7C3093.3,196,3147,147,3200,106.2C3253.3,65,3307,33,3360,32.7C3413.3,33,3467,65,3520,138.8C3573.3,212,3627,327,3680,375.7C3733.3,425,3787,408,3813,400.2L3840,392L3840,490L3813.3,490C3786.7,490,3733,490,3680,490C3626.7,490,3573,490,3520,490C3466.7,490,3413,490,3360,490C3306.7,490,3253,490,3200,490C3146.7,490,3093,490,3040,490C2986.7,490,2933,490,2880,490C2826.7,490,2773,490,2720,490C2666.7,490,2613,490,2560,490C2506.7,490,2453,490,2400,490C2346.7,490,2293,490,2240,490C2186.7,490,2133,490,2080,490C2026.7,490,1973,490,1920,490C1866.7,490,1813,490,1760,490C1706.7,490,1653,490,1600,490C1546.7,490,1493,490,1440,490C1386.7,490,1333,490,1280,490C1226.7,490,1173,490,1120,490C1066.7,490,1013,490,960,490C906.7,490,853,490,800,490C746.7,490,693,490,640,490C586.7,490,533,490,480,490C426.7,490,373,490,320,490C266.7,490,213,490,160,490C106.7,490,53,490,27,490L0,490Z"/></svg>