<?xml version="1.0" standalone="no"?>
<svg xmlns:xlink="http://www.w3.org/1999/xlink" id="wave" style="transform:rotate(180deg); transition: 0.3s" viewBox="0 0 1440 490" version="1.1" xmlns="http://www.w3.org/2000/svg"><defs><linearGradient id="sw-gradient-0" x1="0" x2="0" y1="1" y2="0"><stop stop-color="rgba(62, 71.914, 243, 1)" offset="0%"/><stop stop-color="rgba(11, 255, 229.374, 1)" offset="100%"/></linearGradient></defs><path style="transform:translate(0, 0px); opacity:1" fill="url(#sw-gradient-0)" d="M0,392L24,375.7C48,359,96,327,144,261.3C192,196,240,98,288,49C336,0,384,0,432,73.5C480,147,528,294,576,294C624,294,672,147,720,138.8C768,131,816,261,864,302.2C912,343,960,294,1008,261.3C1056,229,1104,212,1152,212.3C1200,212,1248,229,1296,220.5C1344,212,1392,180,1440,138.8C1488,98,1536,49,1584,57.2C1632,65,1680,131,1728,147C1776,163,1824,131,1872,155.2C1920,180,1968,261,2016,261.3C2064,261,2112,180,2160,130.7C2208,82,2256,65,2304,98C2352,131,2400,212,2448,253.2C2496,294,2544,294,2592,285.8C2640,278,2688,261,2736,269.5C2784,278,2832,310,2880,310.3C2928,310,2976,278,3024,269.5C3072,261,3120,278,3168,310.3C3216,343,3264,392,3312,343C3360,294,3408,147,3432,73.5L3456,0L3456,490L3432,490C3408,490,3360,490,3312,490C3264,490,3216,490,3168,490C3120,490,3072,490,3024,490C2976,490,2928,490,2880,490C2832,490,2784,490,2736,490C2688,490,2640,490,2592,490C2544,490,2496,490,2448,490C2400,490,2352,490,2304,490C2256,490,2208,490,2160,490C2112,490,2064,490,2016,490C1968,490,1920,490,1872,490C1824,490,1776,490,1728,490C1680,490,1632,490,1584,490C1536,490,1488,490,1440,490C1392,490,1344,490,1296,490C1248,490,1200,490,1152,490C1104,490,1056,490,1008,490C960,490,912,490,864,490C816,490,768,490,720,490C672,490,624,490,576,490C528,490,480,490,432,490C384,490,336,490,288,490C240,490,192,490,144,490C96,490,48,490,24,490L0,490Z"/></svg>