<?xml version="1.0" standalone="no"?><svg xmlns="http://www.w3.org/2000/svg" viewBox="0 0 1440 320"><path fill="#0099ff" fill-opacity="1" d="M0,128L26.7,144C53.3,160,107,192,160,202.7C213.3,213,267,203,320,208C373.3,213,427,235,480,245.3C533.3,256,587,256,640,218.7C693.3,181,747,107,800,96C853.3,85,907,139,960,170.7C1013.3,203,1067,213,1120,192C1173.3,171,1227,117,1280,106.7C1333.3,96,1387,128,1413,144L1440,160L1440,0L1413.3,0C1386.7,0,1333,0,1280,0C1226.7,0,1173,0,1120,0C1066.7,0,1013,0,960,0C906.7,0,853,0,800,0C746.7,0,693,0,640,0C586.7,0,533,0,480,0C426.7,0,373,0,320,0C266.7,0,213,0,160,0C106.7,0,53,0,27,0L0,0Z"></path></svg>